#tb 0: 1/600
0,          0,          0,        1,    57600, 0xe6b0a48c
0,         40,         40,        1,    57600, 0xe064d51c
0,         80,         80,        1,    57600, 0xbfce6b33
0,        120,        120,        1,    57600, 0x371bab02
0,        160,        160,        1,    57600, 0x0d2d7456
0,        200,        200,        1,    57600, 0x9184eecb
0,        240,        240,        1,    57600, 0xb482e8db
0,        280,        280,        1,    57600, 0x0f4cd4be
0,        320,        320,        1,    57600, 0xe276cccb
0,        360,        360,        1,    57600, 0x04c21c62
0,        400,        400,        1,    57600, 0x848960a2
0,        440,        440,        1,    57600, 0xc4c8cf03
0,        480,        480,        1,    57600, 0xb4094866
0,        520,        520,        1,    57600, 0xf22da043
0,        560,        560,        1,    57600, 0x6517b67b
0,        600,        600,        1,    57600, 0x23e39ccb
0,        640,        640,        1,    57600, 0x41525ca3
0,        680,        680,        1,    57600, 0xc3edc5f3
0,        720,        720,        1,    57600, 0x8ce81c7e
0,        760,        760,        1,    57600, 0x56829443
0,        800,        800,        1,    57600, 0x511ce287
0,        840,        840,        1,    57600, 0x8f029a5b
0,        880,        880,        1,    57600, 0x2b47cf43
0,        920,        920,        1,    57600, 0x8e7ecf4b
0,        960,        960,        1,    57600, 0xd620317e
0,       1000,       1000,        1,    57600, 0x5987646e
0,       1040,       1040,        1,    57600, 0xcfedb7df
0,       1080,       1080,        1,    57600, 0x33746e7b
0,       1120,       1120,        1,    57600, 0x1d318573
0,       1160,       1160,        1,    57600, 0xc851848b
0,       1200,       1200,        1,    57600, 0x939db1d7
0,       1240,       1240,        1,    57600, 0x1719aed3
0,       1280,       1280,        1,    57600, 0x1ba3e18c
0,       1320,       1320,        1,    57600, 0x04f355fb
0,       1360,       1360,        1,    57600, 0x6fafd5f4
0,       1400,       1400,        1,    57600, 0x434f800b
0,       1440,       1440,        1,    57600, 0xed42179b
0,       1480,       1480,        1,    57600, 0x3b33118b
0,       1520,       1520,        1,    57600, 0xf81880cb
0,       1560,       1560,        1,    57600, 0xd2c58e1b
0,       1600,       1600,        1,    57600, 0xd96f50eb
0,       1640,       1640,        1,    57600, 0x64ef63fb
0,       1680,       1680,        1,    57600, 0x7b14b6fc
0,       1720,       1720,        1,    57600, 0xeb1c9054
0,       1760,       1760,        1,    57600, 0x3b30c97c
0,       1800,       1800,        1,    57600, 0xc93e9484
0,       1840,       1840,        1,    57600, 0xe012c0cc
0,       1880,       1880,        1,    57600, 0x48e2dda4
0,       1920,       1920,        1,    57600, 0x13eb55fb
0,       1960,       1960,        1,    57600, 0xa5edbedc
0,       2000,       2000,        1,    57600, 0x0123a484
0,       2040,       2040,        1,    57600, 0xc624a7ac
0,       2080,       2080,        1,    57600, 0xd83cf45c
0,       2120,       2120,        1,    57600, 0x8f9bf4b4
0,       2160,       2160,        1,    57600, 0x2d494b8c
0,       2200,       2200,        1,    57600, 0xb246f07c
0,       2240,       2240,        1,    57600, 0x5750e67c
0,       2280,       2280,        1,    57600, 0x6643e9ac
0,       2320,       2320,        1,    57600, 0x8d3b86b3
0,       2360,       2360,        1,    57600, 0x4bb0546b
0,       2400,       2400,        1,    57600, 0xfe439333
0,       2440,       2440,        1,    57600, 0x0cc76233
0,       2480,       2480,        1,    57600, 0xb6fe40ae
0,       2520,       2520,        1,    57600, 0xf79fe0d7
0,       2560,       2560,        1,    57600, 0xdc90dcbb
0,       2600,       2600,        1,    57600, 0x371e7c2b
0,       2640,       2640,        1,    57600, 0x7c4590bb
0,       2680,       2680,        1,    57600, 0x66f5454b
0,       2720,       2720,        1,    57600, 0x1678ae5b
0,       2760,       2760,        1,    57600, 0x1ee8fdec
0,       2800,       2800,        1,    57600, 0x98d2a083
0,       2840,       2840,        1,    57600, 0x86d29e5b
0,       2880,       2880,        1,    57600, 0x23d2bc83
0,       2920,       2920,        1,    57600, 0x3fc729f2
0,       2960,       2960,        1,    57600, 0x821d61da
0,       3000,       3000,        1,    57600, 0xdd549e0e
0,       3040,       3040,        1,    57600, 0x641234e2
0,       3080,       3080,        1,    57600, 0x9a282112
0,       3120,       3120,        1,    57600, 0x6587e2fb
0,       3160,       3160,        1,    57600, 0x043d0cb2
0,       3200,       3200,        1,    57600, 0x90328707
0,       3240,       3240,        1,    57600, 0x5744d313
0,       3280,       3280,        1,    57600, 0x6e1b95cb
